<svg viewBox="0 0 80 80" xmlns="http://www.w3.org/2000/svg" aria-hidden="true">
  <!-- Outer ring — orange -->
  <g fill="#fb923c">
    <rect x="20" y="0"  width="6" height="6" rx="1.5"/>
    <rect x="30" y="0"  width="6" height="6" rx="1.5"/>
    <rect x="40" y="0"  width="6" height="6" rx="1.5"/>
    <rect x="50" y="0"  width="6" height="6" rx="1.5"/>
    <rect x="10" y="10" width="6" height="6" rx="1.5"/>
    <rect x="60" y="10" width="6" height="6" rx="1.5"/>
    <rect x="0"  y="20" width="6" height="6" rx="1.5"/>
    <rect x="70" y="20" width="6" height="6" rx="1.5"/>
    <rect x="0"  y="30" width="6" height="6" rx="1.5"/>
    <rect x="70" y="30" width="6" height="6" rx="1.5"/>
    <rect x="0"  y="40" width="6" height="6" rx="1.5"/>
    <rect x="70" y="40" width="6" height="6" rx="1.5"/>
    <rect x="0"  y="50" width="6" height="6" rx="1.5"/>
    <rect x="70" y="50" width="6" height="6" rx="1.5"/>
    <rect x="10" y="60" width="6" height="6" rx="1.5"/>
    <rect x="60" y="60" width="6" height="6" rx="1.5"/>
    <rect x="20" y="70" width="6" height="6" rx="1.5"/>
    <rect x="30" y="70" width="6" height="6" rx="1.5"/>
    <rect x="40" y="70" width="6" height="6" rx="1.5"/>
    <rect x="50" y="70" width="6" height="6" rx="1.5"/>
  </g>
  <!-- Middle ring — gray -->
  <g fill="#555555">
    <rect x="20" y="10" width="6" height="6" rx="1.5"/>
    <rect x="30" y="10" width="6" height="6" rx="1.5"/>
    <rect x="40" y="10" width="6" height="6" rx="1.5"/>
    <rect x="50" y="10" width="6" height="6" rx="1.5"/>
    <rect x="10" y="20" width="6" height="6" rx="1.5"/>
    <rect x="20" y="20" width="6" height="6" rx="1.5"/>
    <rect x="50" y="20" width="6" height="6" rx="1.5"/>
    <rect x="60" y="20" width="6" height="6" rx="1.5"/>
    <rect x="10" y="30" width="6" height="6" rx="1.5"/>
    <rect x="60" y="30" width="6" height="6" rx="1.5"/>
    <rect x="10" y="40" width="6" height="6" rx="1.5"/>
    <rect x="60" y="40" width="6" height="6" rx="1.5"/>
    <rect x="10" y="50" width="6" height="6" rx="1.5"/>
    <rect x="20" y="50" width="6" height="6" rx="1.5"/>
    <rect x="50" y="50" width="6" height="6" rx="1.5"/>
    <rect x="60" y="50" width="6" height="6" rx="1.5"/>
    <rect x="20" y="60" width="6" height="6" rx="1.5"/>
    <rect x="30" y="60" width="6" height="6" rx="1.5"/>
    <rect x="40" y="60" width="6" height="6" rx="1.5"/>
    <rect x="50" y="60" width="6" height="6" rx="1.5"/>
  </g>
  <!-- Inner pattern — white -->
  <g fill="#e8e8ea">
    <rect x="30" y="20" width="6" height="6" rx="1.5"/>
    <rect x="40" y="20" width="6" height="6" rx="1.5"/>
    <rect x="20" y="30" width="6" height="6" rx="1.5"/>
    <rect x="50" y="30" width="6" height="6" rx="1.5"/>
    <rect x="20" y="40" width="6" height="6" rx="1.5"/>
    <rect x="50" y="40" width="6" height="6" rx="1.5"/>
    <rect x="30" y="50" width="6" height="6" rx="1.5"/>
    <rect x="40" y="50" width="6" height="6" rx="1.5"/>
  </g>
</svg>
